<svg width="" height="" viewBox="0 0 1118 427" fill="none" xmlns="http://www.w3.org/2000/svg">
<path d="M216.022 23C107.167 22.9561 19 110.948 19 219.555C19 305.437 74.1538 378.442 150.964 405.253C161.308 407.846 159.724 400.506 159.724 395.495V361.432C99.9921 368.421 97.5711 328.952 93.5655 322.359C85.4663 308.558 66.3187 305.042 72.041 298.449C85.6424 291.46 99.5079 300.207 115.574 323.897C127.195 341.083 149.864 338.182 161.352 335.325C163.861 324.996 169.231 315.766 176.626 308.602C114.738 297.526 88.9437 259.815 88.9437 214.983C88.9437 193.227 96.1185 173.229 110.204 157.098C101.225 130.507 111.04 107.74 112.361 104.356C137.935 102.07 164.522 122.64 166.59 124.266C181.116 120.354 197.711 118.288 216.286 118.288C234.95 118.288 251.588 120.442 266.246 124.398C271.22 120.618 295.87 102.949 319.639 105.103C320.916 108.487 330.511 130.727 322.06 156.967C336.322 173.141 343.585 193.315 343.585 215.115C343.585 260.035 317.614 297.79 255.55 308.69C260.866 313.91 265.087 320.135 267.966 327.003C270.846 333.87 272.326 341.241 272.32 348.686V398.133C272.672 402.088 272.32 406 278.923 406C356.878 379.761 413 306.228 413 219.598C413 110.949 324.789 23 216.022 23Z" fill="black"/>
<path d="M330 330.5C330 370.06 550.24 305.76 590.95 305.76C631.89 305.76 657.65 280.92 657.65 241.59V134.87H628.21V239.75C628.21 263.67 614.87 277.24 590.95 277.24C567.03 277.24 553.92 263.9 553.92 239.75V134.87H389L330 330.5ZM679.41 268.5C679.41 290.81 697.35 305.99 725.64 305.99C753.7 305.99 773.25 291.73 773.25 268.73C773.25 251.25 763.59 242.51 744.5 238.14L724.03 233.31C714.37 231.01 709.31 226.87 709.31 220.43C709.31 211.92 715.75 206.86 726.79 206.86C737.6 206.86 744.04 213.07 744.27 222.73H770.95C770.72 200.65 753.47 185.93 727.94 185.93C701.72 185.93 682.86 199.27 682.86 221.58C682.86 239.75 692.75 249.41 713.22 254.01L733.69 258.84C743.81 261.14 746.8 265.28 746.8 271.03C746.8 279.31 739.67 284.6 726.56 284.6C713.68 284.6 706.32 278.39 706.09 268.5H679.41ZM845.445 305.99C875.115 305.99 895.815 291.04 900.645 266.2H874.655C871.435 277.01 861.315 282.99 845.905 282.99C827.275 282.99 816.695 272.87 814.625 252.86L900.185 252.63V244.12C900.185 208.7 878.565 185.93 844.525 185.93C811.175 185.93 787.945 210.54 787.945 246.19C787.945 281.38 811.635 305.99 845.445 305.99ZM844.755 208.93C861.545 208.93 872.355 219.28 872.355 234.92H815.315C818.075 217.9 828.195 208.93 844.755 208.93ZM993.942 188.92C989.342 187.77 985.432 187.31 981.522 187.31C966.342 187.31 955.532 194.9 950.702 206.17L949.092 189.61H922.642V303H950.702V247.8C950.702 225.72 963.352 214.91 983.592 214.91H993.942V188.92ZM1004.19 268.5C1004.19 290.81 1022.14 305.99 1050.43 305.99C1078.49 305.99 1098.04 291.73 1098.04 268.73C1098.04 251.25 1088.38 242.51 1069.29 238.14L1048.82 233.31C1039.16 231.01 1034.1 226.87 1034.1 220.43C1034.1 211.92 1040.54 206.86 1051.58 206.86C1062.39 206.86 1068.83 213.07 1069.06 222.73H1095.74C1095.51 200.65 1078.26 185.93 1052.73 185.93C1026.51 185.93 1007.65 199.27 1007.65 221.58C1007.65 239.75 1017.54 249.41 1038.01 254.01L1058.48 258.84C1068.6 261.14 1071.59 265.28 1071.59 271.03C1071.59 279.31 1064.46 284.6 1051.35 284.6C1038.47 284.6 1031.11 278.39 1030.88 268.5H1004.19Z" fill="black"/>
</svg>
