<svg width="" height="" viewBox="0 0 24 24" fill="none" xmlns="http://www.w3.org/2000/svg">
<path d="M19 1.99998C18.2932 1.99864 17.6087 2.2475 17.0678 2.70247C16.5268 3.15745 16.1644 3.78919 16.0446 4.4858C15.9248 5.1824 16.0555 5.89892 16.4134 6.50844C16.7713 7.11796 17.3333 7.58116 18 7.81598V11H6.00001V7.81598C6.66722 7.58008 7.22956 7.11591 7.58764 6.5055C7.94572 5.89508 8.07647 5.17774 7.9568 4.48024C7.83713 3.78275 7.47474 3.15001 6.93367 2.69387C6.3926 2.23773 5.70769 1.98755 5.00001 1.98755C4.29232 1.98755 3.60741 2.23773 3.06635 2.69387C2.52528 3.15001 2.16288 3.78275 2.04321 4.48024C1.92354 5.17774 2.0543 5.89508 2.41237 6.5055C2.77045 7.11591 3.33279 7.58008 4.00001 7.81598V11C4.00001 11.5304 4.21072 12.0391 4.58579 12.4142C4.96087 12.7893 5.46957 13 6.00001 13H11V17.184C10.3328 17.4199 9.77045 17.884 9.41237 18.4945C9.0543 19.1049 8.92354 19.8222 9.04321 20.5197C9.16288 21.2172 9.52528 21.8499 10.0663 22.3061C10.6074 22.7622 11.2923 23.0124 12 23.0124C12.7077 23.0124 13.3926 22.7622 13.9337 22.3061C14.4747 21.8499 14.8371 21.2172 14.9568 20.5197C15.0765 19.8222 14.9457 19.1049 14.5876 18.4945C14.2296 17.884 13.6672 17.4199 13 17.184V13H18C18.5304 13 19.0391 12.7893 19.4142 12.4142C19.7893 12.0391 20 11.5304 20 11V7.81598C20.6667 7.58116 21.2288 7.11796 21.5866 6.50844C21.9445 5.89892 22.0752 5.1824 21.9554 4.4858C21.8356 3.78919 21.4732 3.15745 20.9322 2.70247C20.3913 2.2475 19.7068 1.99864 19 1.99998V1.99998ZM5.00001 5.99998C4.80222 5.99998 4.60889 5.94133 4.44444 5.83145C4.27999 5.72156 4.15181 5.56539 4.07613 5.38266C4.00044 5.19993 3.98064 4.99887 4.01922 4.80489C4.05781 4.6109 4.15305 4.43272 4.2929 4.29287C4.43275 4.15302 4.61093 4.05778 4.80492 4.01919C4.9989 3.98061 5.19996 4.00041 5.38269 4.0761C5.56542 4.15178 5.72159 4.27996 5.83148 4.44441C5.94136 4.60885 6.00001 4.80219 6.00001 4.99998C6.00001 5.26519 5.89465 5.51955 5.70711 5.70708C5.51958 5.89462 5.26522 5.99998 5.00001 5.99998ZM12 21C11.8022 21 11.6089 20.9413 11.4444 20.8314C11.28 20.7216 11.1518 20.5654 11.0761 20.3827C11.0004 20.1999 10.9806 19.9989 11.0192 19.8049C11.0578 19.6109 11.153 19.4327 11.2929 19.2929C11.4328 19.153 11.6109 19.0578 11.8049 19.0192C11.9989 18.9806 12.2 19.0004 12.3827 19.0761C12.5654 19.1518 12.7216 19.28 12.8315 19.4444C12.9414 19.6089 13 19.8022 13 20C13 20.2652 12.8946 20.5195 12.7071 20.7071C12.5196 20.8946 12.2652 21 12 21ZM19 5.99998C18.8022 5.99998 18.6089 5.94133 18.4444 5.83145C18.28 5.72156 18.1518 5.56539 18.0761 5.38266C18.0004 5.19993 17.9806 4.99887 18.0192 4.80489C18.0578 4.6109 18.153 4.43272 18.2929 4.29287C18.4328 4.15302 18.6109 4.05778 18.8049 4.01919C18.9989 3.98061 19.2 4.00041 19.3827 4.0761C19.5654 4.15178 19.7216 4.27996 19.8315 4.44441C19.9414 4.60885 20 4.80219 20 4.99998C20 5.26519 19.8946 5.51955 19.7071 5.70708C19.5196 5.89462 19.2652 5.99998 19 5.99998Z" fill="#666666"/>
</svg>
